<?xml version="1.0" encoding="UTF-8" ?>
<svg version="1.1" width="128" height="128" xmlns="http://www.w3.org/2000/svg" shape-rendering="crispEdges">
  <rect x="72" y="32" width="4" height="4" fill='currentColor' class='icon-outline' />
  <rect x="76" y="32" width="4" height="4" fill='currentColor' class='icon-outline' />
  <rect x="80" y="32" width="4" height="4" fill='currentColor' class='icon-outline' />
  <rect x="84" y="32" width="4" height="4" fill='currentColor' class='icon-outline' />
  <rect x="36" y="36" width="4" height="4" fill='currentColor' class='icon-outline' />
  <rect x="40" y="36" width="4" height="4" fill='currentColor' class='icon-outline' />
  <rect x="44" y="36" width="4" height="4" fill='currentColor' class='icon-outline' />
  <rect x="64" y="36" width="4" height="4" fill='currentColor' class='icon-outline' />
  <rect x="68" y="36" width="4" height="4" fill='currentColor' class='icon-outline' />
  <rect x="72" y="36" width="4" height="4" fill='currentColor' class='icon-secondary' />
  <rect x="76" y="36" width="4" height="4" fill='currentColor' class='icon-secondary' />
  <rect x="80" y="36" width="4" height="4" fill='currentColor' class='icon-secondary' />
  <rect x="84" y="36" width="4" height="4" fill='currentColor' class='icon-secondary' />
  <rect x="88" y="36" width="4" height="4" fill='currentColor' class='icon-outline' />
  <rect x="92" y="36" width="4" height="4" fill='currentColor' class='icon-outline' />
  <rect x="28" y="40" width="4" height="4" fill='currentColor' class='icon-outline' />
  <rect x="32" y="40" width="4" height="4" fill='currentColor' class='icon-outline' />
  <rect x="36" y="40" width="4" height="4" fill="currentColor" class='icon-fill-primary' />
  <rect x="40" y="40" width="4" height="4" fill="currentColor" class='icon-fill-primary' />
  <rect x="44" y="40" width="4" height="4" fill='currentColor' class='icon-outline' />
  <rect x="48" y="40" width="4" height="4" fill='currentColor' class='icon-outline' />
  <rect x="52" y="40" width="4" height="4" fill='currentColor' class='icon-outline' />
  <rect x="56" y="40" width="4" height="4" fill='currentColor' class='icon-outline' />
  <rect x="60" y="40" width="4" height="4" fill='currentColor' class='icon-outline' />
  <rect x="64" y="40" width="4" height="4" fill='currentColor' class='icon-secondary' />
  <rect x="68" y="40" width="4" height="4" fill='currentColor' class='icon-secondary' />
  <rect x="72" y="40" width="4" height="4" fill='currentColor' class='icon-secondary' />
  <rect x="76" y="40" width="4" height="4" fill='currentColor' class='icon-secondary' />
  <rect x="80" y="40" width="4" height="4" fill='currentColor' class='icon-secondary' />
  <rect x="84" y="40" width="4" height="4" fill='currentColor' class='icon-secondary' />
  <rect x="88" y="40" width="4" height="4" fill='currentColor' class='icon-secondary' />
  <rect x="92" y="40" width="4" height="4" fill='currentColor' class='icon-secondary' />
  <rect x="96" y="40" width="4" height="4" fill='currentColor' class='icon-outline' />
  <rect x="24" y="44" width="4" height="4" fill='currentColor' class='icon-outline' />
  <rect x="28" y="44" width="4" height="4" fill="currentColor" class='icon-fill-primary' />
  <rect x="32" y="44" width="4" height="4" fill="currentColor" class='icon-fill-primary' />
  <rect x="36" y="44" width="4" height="4" fill="currentColor" class='icon-fill-primary' />
  <rect x="40" y="44" width="4" height="4" fill="currentColor" class='icon-fill-primary' />
  <rect x="44" y="44" width="4" height="4" fill='currentColor' class='icon-tertiary' />
  <rect x="48" y="44" width="4" height="4" fill='currentColor' class='icon-tertiary' />
  <rect x="52" y="44" width="4" height="4" fill='currentColor' class='icon-tertiary' />
  <rect x="56" y="44" width="4" height="4" fill='currentColor' class='icon-secondary' />
  <rect x="60" y="44" width="4" height="4" fill='currentColor' class='icon-secondary' />
  <rect x="64" y="44" width="4" height="4" fill='currentColor' class='icon-secondary' />
  <rect x="68" y="44" width="4" height="4" fill='currentColor' class='icon-secondary' />
  <rect x="72" y="44" width="4" height="4" fill='currentColor' class='icon-secondary' />
  <rect x="76" y="44" width="4" height="4" fill='currentColor' class='icon-secondary' />
  <rect x="80" y="44" width="4" height="4" fill='currentColor' class='icon-secondary' />
  <rect x="84" y="44" width="4" height="4" fill='currentColor' class='icon-secondary' />
  <rect x="88" y="44" width="4" height="4" fill='currentColor' class='icon-secondary' />
  <rect x="92" y="44" width="4" height="4" fill='currentColor' class='icon-secondary' />
  <rect x="96" y="44" width="4" height="4" fill='currentColor' class='icon-secondary' />
  <rect x="100" y="44" width="4" height="4" fill='currentColor' class='icon-outline' />
  <rect x="20" y="48" width="4" height="4" fill='currentColor' class='icon-outline' />
  <rect x="24" y="48" width="4" height="4" fill="currentColor" class='icon-fill-primary' />
  <rect x="28" y="48" width="4" height="4" fill="currentColor" class='icon-fill-primary' />
  <rect x="32" y="48" width="4" height="4" fill='currentColor' class='icon-quaternary' />
  <rect x="36" y="48" width="4" height="4" fill='currentColor' class='icon-quaternary' />
  <rect x="40" y="48" width="4" height="4" fill='currentColor' class='icon-quaternary' />
  <rect x="44" y="48" width="4" height="4" fill='currentColor' class='icon-quaternary' />
  <rect x="48" y="48" width="4" height="4" fill='currentColor' class='icon-quaternary' />
  <rect x="52" y="48" width="4" height="4" fill="currentColor" class='icon-fill-primary' />
  <rect x="56" y="48" width="4" height="4" fill='currentColor' class='icon-quaternary' />
  <rect x="60" y="48" width="4" height="4" fill='currentColor' class='icon-quaternary' />
  <rect x="64" y="48" width="4" height="4" fill='currentColor' class='icon-quaternary' />
  <rect x="68" y="48" width="4" height="4" fill='currentColor' class='icon-secondary' />
  <rect x="72" y="48" width="4" height="4" fill='currentColor' class='icon-secondary' />
  <rect x="76" y="48" width="4" height="4" fill='currentColor' class='icon-secondary' />
  <rect x="80" y="48" width="4" height="4" fill='currentColor' class='icon-secondary' />
  <rect x="84" y="48" width="4" height="4" fill='currentColor' class='icon-secondary' />
  <rect x="88" y="48" width="4" height="4" fill='currentColor' class='icon-secondary' />
  <rect x="92" y="48" width="4" height="4" fill='currentColor' class='icon-secondary' />
  <rect x="96" y="48" width="4" height="4" fill='currentColor' class='icon-secondary' />
  <rect x="100" y="48" width="4" height="4" fill='currentColor' class='icon-secondary' />
  <rect x="104" y="48" width="4" height="4" fill='currentColor' class='icon-outline' />
  <rect x="16" y="52" width="4" height="4" fill='currentColor' class='icon-outline' />
  <rect x="20" y="52" width="4" height="4" fill="currentColor" class='icon-fill-primary' />
  <rect x="24" y="52" width="4" height="4" fill="currentColor" class='icon-fill-primary' />
  <rect x="28" y="52" width="4" height="4" fill='currentColor' class='icon-quaternary' />
  <rect x="32" y="52" width="4" height="4" fill='currentColor' class='icon-quaternary' />
  <rect x="36" y="52" width="4" height="4" fill='currentColor' class='icon-quaternary' />
  <rect x="40" y="52" width="4" height="4" fill='currentColor' class='icon-quaternary' />
  <rect x="44" y="52" width="4" height="4" fill="currentColor" class='icon-fill-primary' />
  <rect x="48" y="52" width="4" height="4" fill="currentColor" class='icon-fill-primary' />
  <rect x="52" y="52" width="4" height="4" fill="currentColor" class='icon-fill-primary' />
  <rect x="68" y="52" width="4" height="4" fill='currentColor' class='icon-quaternary' />
  <rect x="72" y="52" width="4" height="4" fill='currentColor' class='icon-secondary' />
  <rect x="76" y="52" width="4" height="4" fill='currentColor' class='icon-secondary' />
  <rect x="80" y="52" width="4" height="4" fill='currentColor' class='icon-secondary' />
  <rect x="84" y="52" width="4" height="4" fill='currentColor' class='icon-secondary' />
  <rect x="88" y="52" width="4" height="4" fill='currentColor' class='icon-secondary' />
  <rect x="92" y="52" width="4" height="4" fill='currentColor' class='icon-secondary' />
  <rect x="96" y="52" width="4" height="4" fill='currentColor' class='icon-secondary' />
  <rect x="100" y="52" width="4" height="4" fill='currentColor' class='icon-secondary' />
  <rect x="104" y="52" width="4" height="4" fill='currentColor' class='icon-secondary' />
  <rect x="108" y="52" width="4" height="4" fill='currentColor' class='icon-outline' />
  <rect x="12" y="56" width="4" height="4" fill='currentColor' class='icon-outline' />
  <rect x="16" y="56" width="4" height="4" fill="currentColor" class='icon-fill-primary' />
  <rect x="20" y="56" width="4" height="4" fill="currentColor" class='icon-fill-primary' />
  <rect x="24" y="56" width="4" height="4" fill='currentColor' class='icon-quaternary' />
  <rect x="28" y="56" width="4" height="4" fill='currentColor' class='icon-outline' />
  <rect x="32" y="56" width="4" height="4" fill='currentColor' class='icon-quaternary' />
  <rect x="36" y="56" width="4" height="4" fill="currentColor" class='icon-fill-primary' />
  <rect x="40" y="56" width="4" height="4" fill="currentColor" class='icon-fill-primary' />
  <rect x="44" y="56" width="4" height="4" fill="currentColor" class='icon-fill-primary' />
  <rect x="48" y="56" width="4" height="4" fill="currentColor" class='icon-fill-primary' />
  <rect x="52" y="56" width="4" height="4" fill="currentColor" class='icon-fill-primary' />
  <rect x="56" y="56" width="4" height="4" fill="currentColor" class='icon-fill-primary' />
  <rect x="72" y="56" width="4" height="4" fill='currentColor' class='icon-quaternary' />
  <rect x="76" y="56" width="4" height="4" fill='currentColor' class='icon-secondary' />
  <rect x="80" y="56" width="4" height="4" fill='currentColor' class='icon-secondary' />
  <rect x="84" y="56" width="4" height="4" fill='currentColor' class='icon-secondary' />
  <rect x="88" y="56" width="4" height="4" fill='currentColor' class='icon-secondary' />
  <rect x="92" y="56" width="4" height="4" fill='currentColor' class='icon-secondary' />
  <rect x="96" y="56" width="4" height="4" fill='currentColor' class='icon-secondary' />
  <rect x="100" y="56" width="4" height="4" fill='currentColor' class='icon-secondary' />
  <rect x="104" y="56" width="4" height="4" fill='currentColor' class='icon-secondary' />
  <rect x="108" y="56" width="4" height="4" fill='currentColor' class='icon-outline' />
  <rect x="8" y="60" width="4" height="4" fill='currentColor' class='icon-outline' />
  <rect x="12" y="60" width="4" height="4" fill="currentColor" class='icon-fill-primary' />
  <rect x="16" y="60" width="4" height="4" fill="currentColor" class='icon-fill-primary' />
  <rect x="20" y="60" width="4" height="4" fill="currentColor" class='icon-fill-primary' />
  <rect x="24" y="60" width="4" height="4" fill='currentColor' class='icon-quaternary' />
  <rect x="28" y="60" width="4" height="4" fill='currentColor' class='icon-quaternary' />
  <rect x="32" y="60" width="4" height="4" fill="currentColor" class='icon-fill-primary' />
  <rect x="36" y="60" width="4" height="4" fill="currentColor" class='icon-fill-primary' />
  <rect x="40" y="60" width="4" height="4" fill="currentColor" class='icon-fill-primary' />
  <rect x="44" y="60" width="4" height="4" fill="currentColor" class='icon-fill-primary' />
  <rect x="48" y="60" width="4" height="4" fill="currentColor" class='icon-fill-primary' />
  <rect x="52" y="60" width="4" height="4" fill="currentColor" class='icon-fill-primary' />
  <rect x="76" y="60" width="4" height="4" fill='currentColor' class='icon-quaternary' />
  <rect x="80" y="60" width="4" height="4" fill='currentColor' class='icon-quaternary' />
  <rect x="84" y="60" width="4" height="4" fill='currentColor' class='icon-secondary' />
  <rect x="88" y="60" width="4" height="4" fill='currentColor' class='icon-secondary' />
  <rect x="92" y="60" width="4" height="4" fill='currentColor' class='icon-secondary' />
  <rect x="96" y="60" width="4" height="4" fill='currentColor' class='icon-secondary' />
  <rect x="100" y="60" width="4" height="4" fill='currentColor' class='icon-secondary' />
  <rect x="104" y="60" width="4" height="4" fill='currentColor' class='icon-secondary' />
  <rect x="108" y="60" width="4" height="4" fill='currentColor' class='icon-outline' />
  <rect x="8" y="64" width="4" height="4" fill='currentColor' class='icon-outline' />
  <rect x="12" y="64" width="4" height="4" fill="currentColor" class='icon-fill-primary' />
  <rect x="16" y="64" width="4" height="4" fill="currentColor" class='icon-fill-primary' />
  <rect x="20" y="64" width="4" height="4" fill="currentColor" class='icon-fill-primary' />
  <rect x="24" y="64" width="4" height="4" fill="currentColor" class='icon-fill-primary' />
  <rect x="28" y="64" width="4" height="4" fill="currentColor" class='icon-fill-primary' />
  <rect x="32" y="64" width="4" height="4" fill="currentColor" class='icon-fill-primary' />
  <rect x="84" y="64" width="4" height="4" fill='currentColor' class='icon-quaternary' />
  <rect x="88" y="64" width="4" height="4" fill='currentColor' class='icon-quaternary' />
  <rect x="92" y="64" width="4" height="4" fill='currentColor' class='icon-quaternary' />
  <rect x="96" y="64" width="4" height="4" fill='currentColor' class='icon-secondary' />
  <rect x="100" y="64" width="4" height="4" fill='currentColor' class='icon-secondary' />
  <rect x="104" y="64" width="4" height="4" fill='currentColor' class='icon-secondary' />
  <rect x="108" y="64" width="4" height="4" fill='currentColor' class='icon-outline' />
  <rect x="8" y="68" width="4" height="4" fill='currentColor' class='icon-outline' />
  <rect x="12" y="68" width="4" height="4" fill='currentColor' class='icon-outline' />
  <rect x="16" y="68" width="4" height="4" fill='currentColor' class='icon-outline' />
  <rect x="20" y="68" width="4" height="4" fill='currentColor' class='icon-outline' />
  <rect x="24" y="68" width="4" height="4" fill='currentColor' class='icon-outline' />
  <rect x="28" y="68" width="4" height="4" fill='currentColor' class='icon-outline' />
  <rect x="96" y="68" width="4" height="4" fill='currentColor' class='icon-quaternary' />
  <rect x="100" y="68" width="4" height="4" fill='currentColor' class='icon-secondary' />
  <rect x="104" y="68" width="4" height="4" fill='currentColor' class='icon-secondary' />
  <rect x="108" y="68" width="4" height="4" fill='currentColor' class='icon-secondary' />
  <rect x="112" y="68" width="4" height="4" fill='currentColor' class='icon-outline' />
  <rect x="28" y="72" width="4" height="4" fill='currentColor' class='icon-outline' />
  <rect x="100" y="72" width="4" height="4" fill='currentColor' class='icon-outline' />
  <rect x="104" y="72" width="4" height="4" fill='currentColor' class='icon-secondary' />
  <rect x="108" y="72" width="4" height="4" fill='currentColor' class='icon-secondary' />
  <rect x="112" y="72" width="4" height="4" fill='currentColor' class='icon-outline' />
  <rect x="28" y="76" width="4" height="4" fill='currentColor' class='icon-outline' />
  <rect x="40" y="76" width="4" height="4" fill='currentColor' class='icon-outline' />
  <rect x="52" y="76" width="4" height="4" fill='currentColor' class='icon-outline' />
  <rect x="56" y="76" width="4" height="4" fill='currentColor' class='icon-outline' />
  <rect x="60" y="76" width="4" height="4" fill='currentColor' class='icon-outline' />
  <rect x="64" y="76" width="4" height="4" fill='currentColor' class='icon-outline' />
  <rect x="80" y="76" width="4" height="4" fill='currentColor' class='icon-outline' />
  <rect x="84" y="76" width="4" height="4" fill='currentColor' class='icon-outline' />
  <rect x="96" y="76" width="4" height="4" fill='currentColor' class='icon-outline' />
  <rect x="100" y="76" width="4" height="4" fill='currentColor' class='icon-outline' />
  <rect x="104" y="76" width="4" height="4" fill='currentColor' class='icon-secondary' />
  <rect x="108" y="76" width="4" height="4" fill='currentColor' class='icon-secondary' />
  <rect x="112" y="76" width="4" height="4" fill='currentColor' class='icon-outline' />
  <rect x="28" y="80" width="4" height="4" fill='currentColor' class='icon-outline' />
  <rect x="40" y="80" width="4" height="4" fill='currentColor' class='icon-outline' />
  <rect x="52" y="80" width="4" height="4" fill='currentColor' class='icon-outline' />
  <rect x="68" y="80" width="4" height="4" fill='currentColor' class='icon-outline' />
  <rect x="80" y="80" width="4" height="4" fill='currentColor' class='icon-outline' />
  <rect x="84" y="80" width="4" height="4" fill='currentColor' class='icon-outline' />
  <rect x="96" y="80" width="4" height="4" fill='currentColor' class='icon-outline' />
  <rect x="100" y="80" width="4" height="4" fill='currentColor' class='icon-outline' />
  <rect x="104" y="80" width="4" height="4" fill='currentColor' class='icon-secondary' />
  <rect x="108" y="80" width="4" height="4" fill='currentColor' class='icon-secondary' />
  <rect x="112" y="80" width="4" height="4" fill='currentColor' class='icon-outline' />
  <rect x="24" y="84" width="4" height="4" fill='currentColor' class='icon-outline' />
  <rect x="40" y="84" width="4" height="4" fill='currentColor' class='icon-outline' />
  <rect x="52" y="84" width="4" height="4" fill='currentColor' class='icon-outline' />
  <rect x="68" y="84" width="4" height="4" fill='currentColor' class='icon-outline' />
  <rect x="80" y="84" width="4" height="4" fill='currentColor' class='icon-outline' />
  <rect x="84" y="84" width="4" height="4" fill='currentColor' class='icon-outline' />
  <rect x="96" y="84" width="4" height="4" fill='currentColor' class='icon-outline' />
  <rect x="104" y="84" width="4" height="4" fill='currentColor' class='icon-outline' />
  <rect x="108" y="84" width="4" height="4" fill='currentColor' class='icon-outline' />
  <rect x="20" y="88" width="4" height="4" fill='currentColor' class='icon-outline' />
  <rect x="36" y="88" width="4" height="4" fill='currentColor' class='icon-outline' />
  <rect x="52" y="88" width="4" height="4" fill='currentColor' class='icon-outline' />
  <rect x="64" y="88" width="4" height="4" fill='currentColor' class='icon-outline' />
  <rect x="80" y="88" width="4" height="4" fill='currentColor' class='icon-outline' />
  <rect x="96" y="88" width="4" height="4" fill='currentColor' class='icon-outline' />
  <rect x="24" y="92" width="4" height="4" fill='currentColor' class='icon-outline' />
  <rect x="28" y="92" width="4" height="4" fill='currentColor' class='icon-outline' />
  <rect x="32" y="92" width="4" height="4" fill='currentColor' class='icon-outline' />
  <rect x="40" y="92" width="4" height="4" fill='currentColor' class='icon-outline' />
  <rect x="44" y="92" width="4" height="4" fill='currentColor' class='icon-outline' />
  <rect x="48" y="92" width="4" height="4" fill='currentColor' class='icon-outline' />
  <rect x="68" y="92" width="4" height="4" fill='currentColor' class='icon-outline' />
  <rect x="72" y="92" width="4" height="4" fill='currentColor' class='icon-outline' />
  <rect x="76" y="92" width="4" height="4" fill='currentColor' class='icon-outline' />
  <rect x="84" y="92" width="4" height="4" fill='currentColor' class='icon-outline' />
  <rect x="88" y="92" width="4" height="4" fill='currentColor' class='icon-outline' />
  <rect x="92" y="92" width="4" height="4" fill='currentColor' class='icon-outline' />
</svg>